<?xml version="1.0" standalone="no"?><!DOCTYPE svg PUBLIC "-//W3C//DTD SVG 1.1//EN" "http://www.w3.org/Graphics/SVG/1.1/DTD/svg11.dtd"><svg t="1670330400299" class="icon" viewBox="0 0 1024 1024" version="1.1" xmlns="http://www.w3.org/2000/svg" p-id="3759" xmlns:xlink="http://www.w3.org/1999/xlink" width="200" height="200"><path d="M448 876.8 806.4 512c128-128 57.6-262.4 0-313.6-57.6-57.6-192-128-320 0L172.8 512c-89.6 89.6-38.4 185.6 0 224 38.4 38.4 134.4 89.6 224 0l313.6-313.6c25.6-25.6 32-51.2 32-64 0-38.4-25.6-64-32-70.4-25.6-25.6-83.2-51.2-134.4 0L262.4 601.6c-12.8 12.8-12.8 32 0 44.8 12.8 12.8 32 12.8 44.8 0l313.6-313.6c19.2-19.2 32-12.8 44.8 0 0 0 25.6 19.2 0 44.8l-313.6 313.6c-64 64-121.6 12.8-134.4 0-12.8-12.8-64-70.4 0-134.4l313.6-313.6c108.8-108.8 217.6-12.8 224 0 12.8 12.8 108.8 115.2 0 224L403.2 832l0 0c-12.8 12.8-12.8 32 0 44.8C416 889.6 435.2 889.6 448 876.8L448 876.8 448 876.8C448 876.8 448 876.8 448 876.8 448 876.8 448 876.8 448 876.8z" p-id="3760" fill="#409eff"></path></svg>